<?xml version="1.0" encoding="UTF-8"?>
<svg xmlns="http://www.w3.org/2000/svg" viewBox="0 0 658 652" width="658" height="652">
<path d="M633 153.96C633.65 166.39 633.11 179.03 633.11 191.5C633.11 196.26 634.18 204.2 632.21 208.27C629.74 207.26 627.65 205.41 625.09 204.52C619.71 202.65 614 203.13 608.52 202.02C606.24 201.56 604.4 200 602.2 199.43C600.68 199.03 599.08 199.18 597.53 198.94C591.2 197.94 584.9 197.63 578.62 199.28C573.59 200.6 569.14 203.53 564.91 206.44C563.17 207.64 562.16 208.6 560.13 209.13C554.55 202.78 546.41 202.55 538.72 200.66C534.94 199.73 531.36 199.43 527.54 198.86C525.81 198.6 524.29 198.1 522.5 197.99C511.41 197.3 503.57 199.2 495.68 207.19C493.72 209.17 491.68 211.29 490.25 213.7C488.88 216 488.68 218.69 487.54 221.08C485.97 224.4 483.43 227.04 482.3 230.6C481.07 234.49 481.48 238.74 480.16 242.6C478.85 246.45 476.56 249.38 474 252.48C472.72 254.04 470.66 255.59 470.08 257.6C469.58 259.34 469.54 261.38 470.63 262.89C472.08 264.88 476.13 264.87 476.65 267.64C477.13 270.17 474.11 272.11 474.61 274.69C474.96 276.52 476.53 277.16 476.99 278.7C477.51 280.41 476.01 281.53 476.8 283.46C477.57 285.36 479.32 286.38 479.76 288.57C480.57 292.68 479.92 298.03 483.64 300.92C489.93 305.81 499.19 300.28 503.63 304.87C506.95 308.3 505.81 315.2 504.6 319.23C504.08 320.98 503.54 321.52 503.97 323.22C502.1 326.07 499.48 328.19 497.39 330.86C491.81 337.97 487.45 347.29 487.83 356.5C487.95 359.35 488.56 362.81 490.42 365.09C492.15 367.22 494.62 367.18 494.38 370.5C494.25 372.45 492.59 374.51 491.61 376.11C488.81 380.64 485.04 385.13 483.82 390.29C477 390.77 469.53 390.28 462.5 390.28C447.83 390.28 433.17 390.28 418.5 390.28C412.17 390.28 405.83 390.28 399.5 390.28C395.97 390.28 392.27 390.74 389 389.41C391.22 386.04 394.99 384.15 398.17 381.63C400.41 379.85 402.24 377.76 404.29 375.8C406.01 374.16 407.93 372.8 409.5 371.01C411.55 368.67 412.95 365.72 414.59 363.08C420.29 353.94 425.6 344.93 429.4 334.8C431.53 329.13 436.95 317.19 431.09 312.38C428.25 310.06 424.58 311.4 422.42 313.95C419.23 317.71 417.42 326.8 415.3 331.68C412.33 338.52 409.32 345.52 405.38 351.88C398.5 363.01 382.9 375.22 371.12 380.6C364.94 383.42 359.53 386.12 352.5 385.91C351.41 385.88 348.74 386.12 347.82 385.52C346.67 384.76 347.11 382.66 347.11 381.5C347.09 378.5 346.29 374.27 349.15 372.61C350.29 371.94 352 372 353.26 371.65C357.45 370.5 362.01 369.28 365.97 367.47C383.27 359.54 396.81 346.12 403.56 328.08C405.38 323.21 407.44 317.68 408.04 312.5C408.24 310.8 408.59 308.36 407.64 306.82C406.14 304.38 400.83 305.09 398.5 305.08C389.53 305.03 380.46 305.59 371.5 305.01C368.09 304.78 360.59 304.76 360.74 299.51C360.88 294.41 369.34 295.87 372.5 295.72C379.83 295.37 387.16 295.45 394.5 295.45C397.44 295.45 401.65 296.22 404.45 295.15C407.84 293.85 407.71 283.7 406.26 281.02C404.6 277.94 399.41 278.85 396.5 278.9C387.84 279.05 379.17 279.01 370.5 279.12C367.45 279.15 359.72 279.18 359.48 274.44C359.43 273.57 360.14 272.76 360.57 272.08C363.02 268.11 368.3 269.01 372.5 268.95C380.83 268.84 389.17 269.04 397.5 269.04C399.97 269.04 404.9 270.02 406.93 268.42C407.98 267.58 407.86 265.67 408.04 264.5C408.51 261.51 408.9 257.5 407.81 254.6C406.4 250.84 399.8 252.24 396.69 252.36C387.93 252.69 379.25 252.41 370.5 252.37C366.99 252.36 363.8 253.18 361.95 249.64C361.47 248.71 360.78 247.59 360.78 246.5C360.77 240.92 369.97 242.05 373.5 242C381.53 241.88 389.52 242.02 397.53 242.47C399.99 242.6 403.54 243.73 405.76 242.2C407.99 240.66 408.54 231.92 407.9 229.5C406.82 225.38 399.68 226.79 396.5 226.7C387.17 226.42 377.85 226.85 368.5 226.71C365.79 226.67 359.89 226.07 359.27 222.44C358.44 217.62 366.16 216.38 369.5 216.1C378.18 215.36 386.85 216.49 395.5 216.88C398.25 217 403.4 217.93 405.71 216.19C408.52 214.08 406.73 208.34 406.33 205.53C405.47 199.46 403.28 192.58 400.46 187.1C398.26 182.84 395.06 178.92 393.21 174.57C404.44 171.34 416.73 170.9 426.07 163.08C428.48 166.23 433.02 165.24 436.51 166.95C437.92 167.64 439.6 168.35 440.89 169.2C441.57 169.65 441.74 170.24 442.61 170.62C447.2 172.58 452.52 172.39 457.33 173.32C462.3 174.27 467.44 175.86 472.55 174.86C476.86 174.02 480.96 170.34 484.85 168.37C489.95 165.78 495.77 164.49 501.15 162.58C504.71 161.31 508.69 159.27 512.5 159.01C516.34 158.75 519.93 160.82 523.58 161.73C531.12 163.62 539.73 164.7 547.5 164.08C555.71 163.44 566.02 158.9 574.1 156.54C577.46 155.56 580.86 154.38 584.41 154.46C587.84 154.53 590.68 156.3 593.7 157.76C598.67 160.16 603.87 162.76 609.5 162.97C615.77 163.2 617.89 160.15 623.11 157.59C626.25 156.06 629.68 155.01 633 153.96ZM286.97 173.61C284.47 179.33 280.42 184.5 277.54 190.09C275.29 194.44 274.18 199.23 273.3 204C272.71 207.26 271.11 211.93 273.94 214.56C276.03 216.51 279.92 215.99 282.5 216.16C290.88 216.72 299.14 215.82 307.5 215.96C311.32 216.02 318.5 216 318.03 221.5C317.56 227.01 310.28 225.41 306.69 225.28C297.87 224.95 289.28 224.95 280.5 225.82C275.29 226.34 271.27 224.59 270.74 231.5C270.57 233.75 270.77 238.35 272.36 240.09C274.15 242.05 279.11 241.82 281.5 241.92C289.82 242.25 298.18 242.03 306.5 242.04C310.26 242.04 318.76 241.31 319.55 246.72C319.68 247.65 319.27 248.62 318.91 249.45C317.23 253.3 312.06 252.19 308.5 252.31C302.83 252.5 297.19 252.85 291.5 252.7C287.75 252.6 284.03 252.32 280.27 252.52C276.87 252.69 272.08 252.38 271.35 256.59C270.77 259.88 270.67 265.59 274.01 267.48C277.57 269.5 282.6 268.69 286.47 268.49C293.2 268.15 299.74 268.13 306.47 268.43C311.17 268.64 318.58 267.96 319.19 274.49C319.29 275.58 319.41 277.2 318.42 277.95C317.28 278.81 310.36 278.54 308.5 278.62C299.5 279.05 290.51 279.14 281.5 279.16C278.56 279.16 273.54 278.25 272.02 281.61C270.78 284.37 271.13 292.63 274.02 294.46C276.37 295.94 280.83 294.94 283.5 295.06C291.18 295.4 298.82 295.47 306.5 295.45C309.56 295.45 318.59 295.07 318.86 299.55C319.17 304.39 311.75 304.96 308.5 305.22C299.49 305.96 290.51 305.41 281.5 305.22C279.02 305.17 273.89 304.4 272.27 306.68C270.85 308.69 271.82 310.92 272.12 313C272.89 318.29 273.99 322.54 275.93 327.55C284.03 348.53 295.65 360.08 315.84 369.61C319.94 371.54 327.7 371.42 330.4 372.97C332.65 374.25 332.71 384.47 330.39 385.78C328.96 386.59 326.05 385.94 324.5 385.78C319.03 385.21 313.6 384.19 308.44 382.21C293.8 376.56 285.95 367.95 276.55 355.94C273.04 351.45 269.34 346.94 266.58 341.94C264.86 338.82 263.69 335.53 262.26 332.28C259.63 326.25 257.67 319.17 253.58 313.92C251.75 311.57 248.51 310.17 245.96 312.42C244.15 314.01 244.37 317.35 244.52 319.5C244.92 325.06 246.21 330.25 248.14 335.46C251.55 344.64 256 353.74 261.95 361.57C263.95 364.21 266.38 366.45 268.59 368.89C270.98 371.53 273.07 374.48 275.66 376.92C278.71 379.79 282.26 382.44 285.67 384.86C288.1 386.59 290.91 388.01 292.95 390.09C285.37 390.9 277.22 390.28 269.5 390.28C265.9 390.28 261.89 390.89 258.67 389.36C257.66 383.31 253.92 377.94 250.57 372.88C243.06 361.54 235.72 352.73 224.01 345.52C220.85 343.57 217.47 342.04 214.22 340.29C211.25 338.69 208.64 336.55 205.76 334.83C204.05 333.8 202.49 333.1 201.09 331.74C199.91 323.06 193.07 318.58 190.54 311C191.85 306.57 192.47 301.93 193.72 297.44C194.11 296.05 194.49 293.26 195.89 292.47C197.36 291.63 199.89 292.17 201.5 292.18C205.87 292.22 215.38 292.84 218.33 288.82C219.91 286.66 219.51 284.01 219.63 281.5C219.87 276.65 219.58 271.33 221.23 266.68C222.54 263.02 227.24 259.91 226.19 255.55C225.7 253.54 222.58 251.8 221.28 250.24C217.75 246.01 213.64 240.98 211.57 235.85C210.6 233.45 210.71 231 210.16 228.53C208.49 220.99 206.7 212.84 201.98 206.61C206.8 200.59 207.3 196.75 203.91 189.64C202.85 187.42 201.08 184.64 198.51 184.06C191.86 182.56 189.25 188.26 183.5 188.67C181.12 188.84 178.87 187.77 176.5 187.6C171.72 187.27 166.72 187.53 162 187.67C166.55 184.9 171.11 182.44 176.2 180.65C180.34 179.19 184.73 178.54 188.44 176.01C192.81 173.03 193.48 169.43 196.42 165.9C198.46 163.45 203.73 163.06 204.43 159.53C204.52 159.08 204.2 158.63 204.22 158.17C206.39 156.72 208.02 157.54 210.51 157.81C212.7 158.05 214.9 158.04 217.07 158.49C220.2 159.14 223.01 160.56 226.04 161.48C229.65 162.57 233.3 162.76 236.95 163.54C240.56 164.31 243.95 166 247.58 166.79C250.8 167.5 254.1 167.77 257.34 168.36C261.42 169.1 265.4 170.27 269.5 170.95C275.22 171.9 281.53 171.74 286.97 173.61Z" fill="#c5c5b6" fill-rule="evenodd" stroke="#c5c5b6" stroke-width="0.25" stroke-linejoin="round"/>
<path d="M76.96 154.17C82.68 155.02 89.56 154.95 95.48 154.27C100.23 153.73 104.63 152.22 109.47 152.78C119.01 153.88 124.46 159.77 122.72 169.69C122.07 173.41 120.3 174.63 119 177.72C113.04 178.21 107.3 180.31 101.48 181.81C100.03 182.18 98.74 182.95 97.31 183.26C91.41 184.5 85.46 182.53 79.53 183.71C75.24 184.57 69.56 185.91 67.52 190.33C65.94 193.75 66.81 199.44 67.41 203.01C67.93 206.02 68.99 208.92 69.47 211.92C69.83 214.11 69.59 216.35 69.89 218.55C70.3 221.6 72.03 225.62 72.03 228.51C72.04 229.26 71.56 229.95 71.5 230.7C68.86 227.51 66.07 222.17 61.5 221.68C58.58 221.37 57.72 222.3 55.92 224.18C55.17 224.96 53.77 225.7 53.21 226.64C51.01 230.36 51.28 235.6 53 239.43C55.39 244.7 59.87 250.75 65.04 253.53C67.98 255.11 71.88 254.96 74.47 257.05C77.6 259.56 80.06 264.47 82.97 267.53C84.51 269.13 86.23 270.17 87.93 271.55C90.85 273.9 93.48 276.81 95.84 279.71C98.7 283.21 102.06 289.9 105.77 292C105.63 295.13 105.45 302.73 106.78 305.49C107.71 307.42 109.88 308.61 111.32 310.16C113.77 312.78 115.7 315.94 118.02 318.53C118.49 319.54 118.97 320.55 119.44 321.57C117.87 322.61 119.93 322.18 118.29 322.83C117.09 323.32 114.32 321.81 113.17 321.42C108.92 320.01 104.6 318.54 100.29 317.35C92.13 315.11 83.84 314.14 75.51 312.87C68.44 311.78 61.37 310.32 54.27 309.41C50.38 308.92 46.42 308.32 42.5 308.19C40.75 308.13 38.39 308.57 36.75 307.82C36.35 307.64 36.18 307.14 35.8 306.9C36.04 305.54 36.27 304.19 36.5 302.84C34.33 305.06 31.7 306.74 28.53 307.12C22.19 307.88 13.24 304.2 9.35 298.99C7.69 296.76 6.73 292.91 6.45 290.19C5.92 285.15 10.2 280.43 9.15 275.47C8.49 272.37 5.81 269.77 4.35 267.04C2.12 262.86 0.48 256.9 2.29 252.28C3.32 249.66 5.55 247.75 7.03 245.37C9.11 242.03 11.54 235.91 12.04 232C12.31 229.88 12.06 227.6 12.2 225.45C12.67 218.49 13.32 211.42 14 204.5C14.31 201.3 15.48 198.15 16.09 195C16.86 191.04 17.52 186.9 19.64 183.36C22.94 177.82 27.26 172.22 32.41 168.1C34.73 166.25 38.46 165.13 40.29 162.81C41.92 160.75 43.64 151.42 44.12 148.5C44.4 146.77 44.16 143.18 46.54 142.67C48.55 142.24 49.4 144.01 49.91 145.54C50.65 147.82 50.88 155.51 52.79 156.53C53.56 156.94 59.35 155.31 60.47 155.08C65.87 153.95 71.47 153.82 76.96 154.17ZM393.21 174.57C395.06 178.92 398.26 182.84 400.46 187.1C403.28 192.58 405.47 199.46 406.33 205.53C406.73 208.34 408.52 214.08 405.71 216.19C403.4 217.93 398.25 217 395.5 216.88C386.85 216.49 378.18 215.36 369.5 216.1C366.16 216.38 358.44 217.62 359.27 222.44C359.89 226.07 365.79 226.67 368.5 226.71C377.85 226.85 387.17 226.42 396.5 226.7C399.68 226.79 406.82 225.38 407.9 229.5C408.54 231.92 407.99 240.66 405.76 242.2C403.54 243.73 399.99 242.6 397.53 242.47C389.52 242.02 381.53 241.88 373.5 242C369.97 242.05 360.77 240.92 360.78 246.5C360.78 247.59 361.47 248.71 361.95 249.64C363.8 253.18 366.99 252.36 370.5 252.37C379.25 252.41 387.93 252.69 396.69 252.36C399.8 252.24 406.4 250.84 407.81 254.6C408.9 257.5 408.51 261.51 408.04 264.5C407.86 265.67 407.98 267.58 406.93 268.42C404.9 270.02 399.97 269.04 397.5 269.04C389.17 269.04 380.83 268.84 372.5 268.95C368.3 269.01 363.02 268.11 360.57 272.08C360.14 272.76 359.43 273.57 359.48 274.44C359.72 279.18 367.45 279.15 370.5 279.12C379.17 279.01 387.84 279.05 396.5 278.9C399.41 278.85 404.6 277.94 406.26 281.02C407.71 283.7 407.84 293.85 404.45 295.15C401.65 296.22 397.44 295.45 394.5 295.45C387.16 295.45 379.83 295.37 372.5 295.72C369.34 295.87 360.88 294.41 360.74 299.51C360.59 304.76 368.09 304.78 371.5 305.01C380.46 305.59 389.53 305.03 398.5 305.08C400.83 305.09 406.14 304.38 407.64 306.82C408.59 308.36 408.24 310.8 408.04 312.5C407.44 317.68 405.38 323.21 403.56 328.08C396.81 346.12 383.27 359.54 365.97 367.47C362.01 369.28 357.45 370.5 353.26 371.65C352 372 350.29 371.94 349.15 372.61C346.29 374.27 347.09 378.5 347.11 381.5C347.11 382.66 346.67 384.76 347.82 385.52C348.74 386.12 351.41 385.88 352.5 385.91C359.53 386.12 364.94 383.42 371.12 380.6C382.9 375.22 398.5 363.01 405.38 351.88C409.32 345.52 412.33 338.52 415.3 331.68C417.42 326.8 419.23 317.71 422.42 313.95C424.58 311.4 428.25 310.06 431.09 312.38C436.95 317.19 431.53 329.13 429.4 334.8C425.6 344.93 420.29 353.94 414.59 363.08C412.95 365.72 411.55 368.67 409.5 371.01C407.93 372.8 406.01 374.16 404.29 375.8C402.24 377.76 400.41 379.85 398.17 381.63C394.99 384.15 391.22 386.04 389 389.41C384.57 390.7 380.63 393.03 376.37 394.76C371.17 396.86 365.13 398.33 359.55 398.87C356.52 399.16 353.51 399.5 350.5 399.89C349.45 400.03 348.05 399.78 347.36 400.78C346.66 401.81 346.98 407.05 346.95 408.5C346.81 415.5 346.98 422.5 346.93 429.5C346.9 433.6 345.84 439.2 340.55 439.42C338.12 439.52 334.62 438.6 333.14 436.49C330.02 432.04 331.16 420.8 331.29 415.5C331.33 413.5 331.41 411.5 331.42 409.5C331.43 407.6 332.24 403.26 331 401.69C330.24 400.72 328.8 400.85 327.7 400.62C324.92 400.04 322.15 399.41 319.36 398.85C314.01 397.77 308.8 396.72 303.71 394.69C300.06 393.23 296.74 391.15 292.95 390.09C290.91 388.01 288.1 386.59 285.67 384.86C282.26 382.44 278.71 379.79 275.66 376.92C273.07 374.48 270.98 371.53 268.59 368.89C266.38 366.45 263.95 364.21 261.95 361.57C256 353.74 251.55 344.64 248.14 335.46C246.21 330.25 244.92 325.06 244.52 319.5C244.37 317.35 244.15 314.01 245.96 312.42C248.51 310.17 251.75 311.57 253.58 313.92C257.67 319.17 259.63 326.25 262.26 332.28C263.69 335.53 264.86 338.82 266.58 341.94C269.34 346.94 273.04 351.45 276.55 355.94C285.95 367.95 293.8 376.56 308.44 382.21C313.6 384.19 319.03 385.21 324.5 385.78C326.05 385.94 328.96 386.59 330.39 385.78C332.71 384.47 332.65 374.25 330.4 372.97C327.7 371.42 319.94 371.54 315.84 369.61C295.65 360.08 284.03 348.53 275.93 327.55C273.99 322.54 272.89 318.29 272.12 313C271.82 310.92 270.85 308.69 272.27 306.68C273.89 304.4 279.02 305.17 281.5 305.22C290.51 305.41 299.49 305.96 308.5 305.22C311.75 304.96 319.17 304.39 318.86 299.55C318.59 295.07 309.56 295.45 306.5 295.45C298.82 295.47 291.18 295.4 283.5 295.06C280.83 294.94 276.37 295.94 274.02 294.46C271.13 292.63 270.78 284.37 272.02 281.61C273.54 278.25 278.56 279.16 281.5 279.16C290.51 279.14 299.5 279.05 308.5 278.62C310.36 278.54 317.28 278.81 318.42 277.95C319.41 277.2 319.29 275.58 319.19 274.49C318.58 267.96 311.17 268.64 306.47 268.43C299.74 268.13 293.2 268.15 286.47 268.49C282.6 268.69 277.57 269.5 274.01 267.48C270.67 265.59 270.77 259.88 271.35 256.59C272.08 252.38 276.87 252.69 280.27 252.52C284.03 252.32 287.75 252.6 291.5 252.7C297.19 252.85 302.83 252.5 308.5 252.31C312.06 252.19 317.23 253.3 318.91 249.45C319.27 248.62 319.68 247.65 319.55 246.72C318.76 241.31 310.26 242.04 306.5 242.04C298.18 242.03 289.82 242.25 281.5 241.92C279.11 241.82 274.15 242.05 272.36 240.09C270.77 238.35 270.57 233.75 270.74 231.5C271.27 224.59 275.29 226.34 280.5 225.82C289.28 224.95 297.87 224.95 306.69 225.28C310.28 225.41 317.56 227.01 318.03 221.5C318.5 216 311.32 216.02 307.5 215.96C299.14 215.82 290.88 216.72 282.5 216.16C279.92 215.99 276.03 216.51 273.94 214.56C271.11 211.93 272.71 207.26 273.3 204C274.18 199.23 275.29 194.44 277.54 190.09C280.42 184.5 284.47 179.33 286.97 173.61C289.55 171.97 291.35 169.32 293.56 167.16C297.87 162.96 302.37 159.08 307.8 156.36C316.3 152.11 332.06 147.79 341.5 148.52C344.47 148.75 347.33 149.84 350.31 150.13C352.93 150.39 355.46 150.61 358.01 151.41C361.85 152.6 365.37 154.67 369.01 156.32C373.63 158.41 378.75 160.53 382.91 163.47C385.47 165.27 388.19 167.9 390.1 170.37C391.21 171.79 391.95 173.32 393.21 174.57Z" fill="#2b435b" fill-rule="evenodd" stroke="#2b435b" stroke-width="0.25" stroke-linejoin="round"/>
<path d="M632.21 208.27C635.52 211.46 639.86 214.04 642.53 217.96C646.42 223.67 649.04 235.79 648.12 242.5C647.72 245.41 646.2 248.09 645.49 250.92C645.19 252.08 645.16 253.28 644.88 254.45C644.55 255.87 643.88 256.95 644.04 258.46C644.68 264.65 656.95 275.32 657 281.5C657.05 286.92 649.7 287.13 646.91 290.39C645.99 291.46 645.54 293.14 644.92 294.4C641.91 300.59 638.68 311.87 634.05 316.56C631.81 318.83 628.38 318.26 625.5 318.13C622.62 318 619.35 317.42 616.5 317.84C614.94 318.08 613.38 318.97 611.89 319.47C609.62 320.22 607.46 320.5 606.58 323.05C605.56 325.99 606.43 329.39 606.81 332.36C607.76 339.8 611.49 347.24 617.06 352.45C623.88 358.82 632.91 362.16 638.11 370.35C640.97 374.85 642.32 380 644.86 384.66C645.37 385.6 647.43 388.33 646.76 389.47C646.03 390.75 639.12 390.3 637.5 390.3C627.5 390.29 617.5 390.29 607.5 390.29C579.83 390.29 552.17 390.44 524.5 390.44C510.98 390.44 497.32 391 483.82 390.29C485.04 385.13 488.81 380.64 491.61 376.11C492.59 374.51 494.25 372.45 494.38 370.5C494.62 367.18 492.15 367.22 490.42 365.09C488.56 362.81 487.95 359.35 487.83 356.5C487.45 347.29 491.81 337.97 497.39 330.86C499.48 328.19 502.1 326.07 503.97 323.22C508.33 321 517.62 312.45 518.98 307.5C520.19 303.1 518.43 298.31 520.66 294.15C523.03 289.72 527.14 286.39 529.66 282.03C532.48 277.14 532.85 271.22 534.6 265.96C535.81 262.29 538.38 259.27 539.55 255.58C541.22 250.37 540.87 246.79 541.33 241.5C541.7 237.32 543.32 232.84 544.94 229C546.69 224.88 549.6 220.44 552.66 217.17C555.09 214.58 558.59 212.27 560.13 209.13C562.16 208.6 563.17 207.64 564.91 206.44C569.14 203.53 573.59 200.6 578.62 199.28C584.9 197.63 591.2 197.94 597.53 198.94C599.08 199.18 600.68 199.03 602.2 199.43C604.4 200 606.24 201.56 608.52 202.02C614 203.13 619.71 202.65 625.09 204.52C627.65 205.41 629.74 207.26 632.21 208.27Z" fill="#ad5d32" fill-rule="evenodd" stroke="#ad5d32" stroke-width="0.25" stroke-linejoin="round"/>
<path d="M456.61 434.14C466.97 430.66 472.08 445.03 463.24 448.72C452.67 453.14 446.59 437.51 456.61 434.14ZM92.58 438.36C102.57 437.07 113.6 438.18 122.63 442.86C123.76 443.45 125.81 444.19 126.2 445.55C126.94 448.11 124.4 452.52 123.47 454.92C123.15 455.73 122.97 457.08 122.13 457.55C120.74 458.32 118.22 456.07 117.03 455.48C113.1 453.5 108.88 452.21 104.5 451.81C99.01 451.31 93.24 451.64 88.03 453.54C74.24 458.57 67.71 473.43 69.39 487.34C71.89 508.09 91.67 516.19 110.31 513.4C114.59 512.76 119.06 511.39 122.96 509.53C124 509.04 125.97 507.47 127.13 508.34C128.18 509.12 127.83 512.35 127.89 513.5C127.99 515.7 128.65 519.11 127.58 521.13C126.63 522.94 120.71 524.8 118.76 525.36C99.24 530.99 75.4 526.76 62.77 509.81C42.44 482.53 58.84 442.71 92.58 438.36ZM417.53 445.22C418.31 445.14 419.53 444.77 420.26 445.27C421.29 445.96 420.88 448.45 420.9 449.5C420.94 451.72 420.17 459.64 421.38 461.14C422.19 462.15 424.38 461.76 425.5 461.78C429.16 461.83 432.85 461.58 436.5 461.77C437.7 461.84 439.21 461.55 440.05 462.67C440.88 463.78 440.23 466.24 440.12 467.5C440 468.94 440.28 471.71 439.41 472.94C438.54 474.17 436.81 473.86 435.5 473.9C432.17 474 428.83 473.83 425.5 473.89C424.2 473.92 422.12 473.53 421.23 474.75C420.32 476 420.89 479.04 420.89 480.5C420.89 485.83 420.89 491.17 420.89 496.5C420.89 504.76 419.39 514.57 430.5 515.14C433.04 515.28 435.05 514.68 437.39 513.87C438.13 513.62 439.36 512.78 440.18 513.37C441.18 514.07 440.84 516.45 440.91 517.5C441.36 523.86 441.21 525.69 434.5 527.01C431.28 527.64 427.77 527.76 424.5 527.44C422.47 527.24 420.39 526.82 418.47 526.12C410.44 523.21 407.2 515.55 406.89 507.5C406.62 500.19 406.85 492.82 406.85 485.5C406.85 482.58 407.21 479.4 406.83 476.5C406.1 470.9 399.53 476.34 397.91 472.49C397.27 470.97 397.35 463.05 398.65 462.12C400.64 460.7 404.88 463.18 406.46 461.02C408.26 458.54 405.78 451.67 407.11 448.63C407.78 447.09 415.64 445.41 417.53 445.22ZM183.27 505C184.71 502.06 184.05 497.88 184.05 494.5C184.06 488.17 184.06 481.83 184.06 475.5C184.06 472.38 184.6 468.72 183.27 466C183.82 460.43 186.75 462.1 191.5 461.73C193.27 461.59 196.19 460.55 197.11 462.53C198.08 464.64 197.38 473.69 197.37 476.5C197.37 488.17 197.37 499.83 197.37 511.5C197.37 514.83 197.42 518.17 197.38 521.5C197.36 523.01 197.75 525.01 196.38 526.06C195.61 526.65 194.37 526.4 193.5 526.46C191.62 526.59 185.15 526.96 183.86 525.73C182.46 524.41 184.48 521.39 181.74 521.29C181.08 521.27 179.83 522.43 179.27 522.76C177.35 523.9 175.33 524.88 173.22 525.65C166.52 528.12 158.39 528.53 151.7 525.76C139.4 520.67 139.68 508.87 139.68 497.5C139.68 491.5 139.68 485.5 139.68 479.5C139.68 475.5 139.63 471.5 139.68 467.5C139.69 466.2 139.32 463.86 140.21 462.76C140.89 461.91 142.54 462.05 143.5 461.96C145.56 461.76 152.74 460.48 153.53 462.77C154.37 465.21 153.64 470.76 153.64 473.5C153.63 481.17 153.63 488.83 153.63 496.5C153.63 500.89 153.17 505.95 155.67 509.81C160.04 516.55 169.98 515.56 176.38 512.85C180.79 510.99 183.36 510.24 183.27 505ZM239.52 461.23C244.05 460.43 248.63 460.44 253.13 461.46C277.8 467.06 282.35 502.05 265.89 518.4C259.44 524.8 250.62 527.61 241.66 527.56C238.46 527.55 235.26 527.22 232.17 526.42C231.23 526.17 229.02 524.98 228.11 525.72C226.63 526.93 227.39 530.8 227.39 532.5C227.38 537.5 227.38 542.5 227.38 547.5C227.38 549.34 227.84 551.72 226.41 553.14C225.36 554.18 221.81 553.56 220.5 553.56C219.08 553.56 216.31 554.1 215.02 553.43C213.11 552.44 213.46 550.35 213.43 548.5C213.35 543.5 213.43 538.5 213.43 533.5C213.44 516.17 213.43 498.83 213.43 481.5C213.43 476.84 213.36 472.16 213.43 467.5C213.44 466.11 213.1 463.91 214.13 462.76C214.72 462.1 215.69 462.22 216.47 462.1C218.07 461.86 225.27 461.13 226.39 461.9C227.7 462.8 226.81 465.32 228.43 465.57C229.57 465.76 231.26 464.19 232.23 463.7C234.49 462.55 237.01 461.67 239.52 461.23ZM307.52 461.24C323.91 458.12 339.56 466.33 342.33 483.45C342.7 485.79 343.51 494.59 342 496.36C340.36 498.26 335.79 497.37 333.5 497.37C325.17 497.37 316.83 497.36 308.5 497.37C306.98 497.37 299.01 496.96 298.3 497.86C297.69 498.64 298 499.59 298.09 500.46C298.33 502.54 299.8 504.84 301.01 506.48C307.65 515.45 320.41 516.28 330.47 514.04C333.33 513.41 336.05 512.44 338.71 511.24C339.31 510.97 340.65 509.91 341.37 510.3C342.72 511.04 342.35 513.22 342.41 514.5C342.57 517.67 343.51 521.03 340.58 523.05C336.3 526 329.61 526.88 324.59 527.42C310.95 528.89 294.96 524.31 287.51 512.01C276.25 493.41 285.04 465.51 307.52 461.24ZM383.59 461.25C385.84 460.74 391.25 459.56 392.98 461.73C394.16 463.21 393.46 466.74 393.39 468.5C393.35 469.73 393.68 472.42 392.92 473.45C391.6 475.22 387.52 473.87 385.5 473.94C381.37 474.1 371.59 477.19 369.99 481.58C368.85 484.72 369.64 489.19 369.64 492.5C369.64 499.83 369.64 507.17 369.64 514.5C369.64 516.6 370.34 523.64 369.49 525.2C368.46 527.06 361.56 526.61 359.5 526.46C358.62 526.39 357.42 526.62 356.65 526.02C355.33 524.99 355.72 522.96 355.71 521.5C355.67 518.17 355.71 514.83 355.71 511.5C355.69 499.5 355.71 487.5 355.7 475.5C355.7 473.18 354.99 464.31 356.23 462.77C356.91 461.92 358.54 462.07 359.5 461.98C361.47 461.8 367.81 460.87 369.16 462.17C370.67 463.62 368.34 467.63 370.48 468.6C371.27 468.95 373.17 466.71 373.73 466.27C376.61 464 379.99 462.07 383.59 461.25ZM494.42 461.42C498.79 462.03 495.16 466.35 497.51 467.45C497.7 467.54 501.81 465.11 502.34 464.83C506.74 462.52 511.53 461.03 516.5 460.68C519.43 460.48 522.44 460.69 525.31 461.32C544.79 465.59 541.04 487.45 541.04 502.5C541.04 508.17 541.04 513.83 541.04 519.5C541.05 521.18 541.73 524.75 540.27 525.96C539.53 526.59 538.37 526.39 537.5 526.46C535.59 526.63 528.34 526.96 527.35 525.35C526.4 523.82 527.08 516.6 527.08 514.5C527.07 507.17 527.08 499.83 527.08 492.5C527.06 482.19 526.39 473.06 513.5 473.23C509.19 473.29 504.98 474.76 501.14 476.63C500.05 477.16 498.09 477.85 497.41 478.91C495.86 481.32 496.7 485.74 496.7 488.5C496.7 496.83 496.69 505.17 496.69 513.5C496.69 515.38 497.16 524.12 496.53 525.25C495.52 527.04 488.51 526.61 486.5 526.46C485.63 526.39 484.42 526.62 483.66 526.02C482.37 525 482.76 522.94 482.75 521.5C482.69 516.83 482.74 512.17 482.74 507.5C482.76 496.5 482.74 485.5 482.75 474.5C482.75 472.31 482.07 464.26 483.25 462.77C483.92 461.92 485.55 462.07 486.5 461.98C488.89 461.76 492.05 461.1 494.42 461.42ZM579.57 461.3C592.11 459.21 605.53 462.59 613.75 472.74C628.75 491.25 619.45 520.99 596 526.49C581.28 529.95 565.06 524.63 557.18 511.32C545.73 491.94 556.98 465.07 579.57 461.3ZM454.47 462.21C456.27 461.63 465.04 461.19 466.11 462.57C467.18 463.96 466.51 472.37 466.52 474.5C466.53 485.83 466.52 497.17 466.52 508.5C466.52 512.83 466.58 517.17 466.53 521.5C466.5 523.72 466.82 525.47 464.5 526.39C462.95 527.01 453.92 526.63 452.99 525.38C451.89 523.9 452.57 515.68 452.57 513.5C452.57 502.17 452.59 490.83 452.58 479.5C452.58 475.18 452.38 470.81 452.58 466.5C452.67 464.56 452.42 462.87 454.47 462.21ZM310.78 471.43C304.87 472.56 300.31 477.18 298.32 482.74C297.9 483.9 296.66 486.95 297.46 488.16C298.47 489.68 302.91 488.92 304.5 488.93C310.5 488.93 316.5 488.93 322.5 488.93C324.33 488.93 327.45 489.53 328.97 488.33C330.36 487.23 328.84 481.57 328.34 480.25C325.58 473.06 318.08 470.03 310.78 471.43ZM236.63 473.31C233.95 473.8 228.8 475.3 227.63 478.13C226.89 479.91 227.38 482.61 227.38 484.5C227.38 489.5 227.38 494.5 227.38 499.5C227.38 502.16 226.55 510.59 227.93 512.51C228.88 513.81 230.91 514.04 232.34 514.37C236.33 515.32 240.45 515.62 244.5 514.93C262.02 511.92 267.33 486.55 253.25 476.27C248.47 472.78 242.33 472.28 236.63 473.31ZM583.65 473.37C563.77 476.14 561.62 506.75 579.72 513.74C583.14 515.06 586.85 515.27 590.45 514.74C609.92 511.84 612.15 481.18 594.13 474.43C590.79 473.18 587.18 472.88 583.65 473.37ZM320.65 571.05C324.89 569.31 327.75 574.9 324.28 576.73C319.64 579.17 316.83 572.61 320.65 571.05ZM220.5 637.11C224.16 631.94 225.98 624.67 228.35 618.76C232.65 608.07 236.91 597.37 241.25 586.7C242.26 584.23 245.01 575.45 246.49 573.96C247.3 573.14 249.22 572.48 250.32 573.21C251.64 574.09 250.27 576.29 249.84 577.36C248.22 581.4 246.57 585.44 244.94 589.48C239.29 603.48 233.64 617.48 228 631.49C226.85 634.34 225.7 637.2 224.55 640.05C224.17 641.01 223.81 642.7 222.91 643.33C221.93 644.02 220.67 644.07 219.51 643.83C217.8 643.46 217.46 642.1 216.84 640.65C215.42 637.36 214.15 634 212.82 630.67C207.3 616.9 201.73 603.15 196.17 589.4C194.53 585.36 192.9 581.32 191.28 577.28C190.89 576.31 189.52 574.08 190.75 573.26C191.82 572.54 193.81 573.03 194.68 573.81C195.46 574.51 195.85 576.37 196.24 577.32C197.49 580.38 198.71 583.45 199.96 586.52C204.58 597.91 209.19 609.3 213.79 620.71C215.98 626.15 217.85 631.88 220.5 637.11ZM276.5 591.23C287.65 589.52 298.94 593.8 304.79 603.71C313.81 618.98 305.27 640.58 287.47 643.86C277.18 645.75 265.99 642.45 259.68 633.78C248.38 618.25 257.09 594.2 276.5 591.23ZM322.48 591.33C323.15 591.43 323.43 591.23 323.94 591.78C325.06 593.04 324.47 600.55 324.47 602.5C324.47 613.17 324.46 623.83 324.46 634.5C324.46 637.03 325.71 643.29 322.47 643.89C318.85 644.57 320.06 636.64 320.06 634.5C320.05 623.83 320.05 613.17 320.05 602.5C320.05 600.31 318.85 590.79 322.48 591.33ZM357.66 591.32C363.51 590.26 369.92 590.75 375.4 593.11C377.08 593.83 381.67 596.48 378.2 598.6C377.1 599.28 375.18 597.73 374.23 597.31C371.23 595.98 367.78 595.19 364.5 595.06C348.77 594.43 339 607.19 341.39 622.32C343.44 635.27 356.24 641.82 368.48 639.89C371.53 639.4 374.64 638.34 377.36 636.87C377.92 636.57 379.68 635.05 380.38 635.43C381.68 636.13 381.29 638.2 380.76 639.26C379.75 641.27 375.43 642.41 373.48 643.02C361.41 646.74 347.15 643.36 340.15 632.33C330.28 616.77 339.39 594.6 357.66 591.32ZM407.65 591.29C420.08 588.9 432.12 595.61 434.35 608.43C434.66 610.23 435.35 615.67 434.47 617.12C433.17 619.28 427.68 618.27 425.5 618.28C417.5 618.28 409.5 618.28 401.5 618.28C397.51 618.28 392.69 616.59 393.48 622.15C395.39 635.67 409.22 641.64 421.5 639.95C424.62 639.52 427.8 638.55 430.62 637.15C431.48 636.73 433.33 635.14 434.32 635.8C437.49 637.91 432.56 640.84 431.03 641.53C418.35 647.23 400.73 645.04 392.72 632.76C383.31 618.36 389.45 594.79 407.65 591.29ZM458.68 591.31C463.46 590.37 468.99 590.6 473.72 591.65C475.97 592.15 478.68 592.41 477.88 595.47C477.28 597.78 471.46 595.29 469.5 595.08C462.78 594.39 450.62 595.04 450.77 604.5C450.84 608.45 453.97 610.76 457.24 612.3C463.78 615.38 472.45 616.44 477.6 621.9C486.09 630.92 477.87 642.22 467.49 643.95C461.63 644.93 455.31 644.55 449.64 642.79C448.13 642.33 444.06 641.18 445.47 638.69C446.67 636.59 452.55 639.29 454.66 639.7C461.27 640.98 474.23 641.37 475.83 632.45C476.52 628.56 475.19 625.71 472.04 623.47C465.3 618.68 455.87 618.6 449.64 612.87C440.7 604.64 448.92 593.23 458.68 591.31ZM277.67 595.33C255.09 599.04 253.1 631.93 274.48 639.11C278.01 640.29 281.83 640.48 285.5 639.93C308.65 636.49 309.61 602.07 287.54 595.86C284.34 594.96 280.96 594.79 277.67 595.33ZM407.66 595.26C401.49 596.74 396.43 601.97 394.45 607.89C394.01 609.21 392.37 613.47 393.85 614.56C394.9 615.34 400.03 614.89 401.5 614.89C408.17 614.9 414.83 614.89 421.5 614.89C423.11 614.89 428.87 615.4 429.82 614.22C431.04 612.69 429.77 607.28 429.11 605.51C425.82 596.68 416.52 593.14 407.66 595.26Z" fill="#121210" fill-rule="evenodd" stroke="#121210" stroke-width="0.25" stroke-linejoin="round"/>
<path d="M521.19 67C521.52 75.27 525.49 87.02 528.65 94.79C529.2 96.15 531.36 102.48 532.66 102.78C534.55 103.22 536.37 98.8 537.2 97.59C541.65 91.07 545.25 82.63 547.02 74.91C548.3 72.92 548.77 69.48 551.48 68.92C554.53 68.28 555.97 70.96 556.57 73.47C557.12 75.74 556.77 78.19 557.11 80.48C557.85 85.41 559.53 90.68 561.26 95.36C561.75 96.68 564.22 103.75 565.36 103.68C566.37 103.62 569.37 98.53 569.96 97.51C573.46 91.44 575.53 89.18 577.45 82.03C578.06 79.76 578.36 77.53 581 77.17C583.6 76.82 585.22 79.45 586.06 81.45C587.25 84.3 587.81 87.39 589.11 90.2C591.1 94.49 593.85 98.55 595.6 102.94C596.13 104.25 597.68 111.34 598.69 111.56C600.05 111.87 603.01 105.71 603.56 104.47C604.7 101.92 606.19 99.53 607.32 96.99C609.4 92.33 610.81 87.51 612.38 82.71C612.92 81.04 614.2 79.44 616.17 80.41C617.85 81.25 617.55 84.02 617.84 85.5C618.79 90.21 620.47 94.83 621.99 99.37C623.21 103 624.08 106.74 625.38 110.34C627.51 116.21 630.48 121.75 632.81 127.52C633.78 129.92 637.24 135.16 637.01 137.45C636.63 141.22 630.18 141.55 630.08 145.53C629.98 149.59 635.33 148.29 633 153.96C629.68 155.01 626.25 156.06 623.11 157.59C617.89 160.15 615.77 163.2 609.5 162.97C603.87 162.76 598.67 160.16 593.7 157.76C590.68 156.3 587.84 154.53 584.41 154.46C580.86 154.38 577.46 155.56 574.1 156.54C566.02 158.9 555.71 163.44 547.5 164.08C539.73 164.7 531.12 163.62 523.58 161.73C519.93 160.82 516.34 158.75 512.5 159.01C508.69 159.27 504.71 161.31 501.15 162.58C495.77 164.49 489.95 165.78 484.85 168.37C480.96 170.34 476.86 174.02 472.55 174.86C467.44 175.86 462.3 174.27 457.33 173.32C452.52 172.39 447.2 172.58 442.61 170.62C441.74 170.24 441.57 169.65 440.89 169.2C439.6 168.35 437.92 167.64 436.51 166.95C433.02 165.24 428.48 166.23 426.07 163.08C426.43 162.21 426.54 161.49 427.24 160.79C428.29 159.74 431.79 158.71 431.08 156.63C430.77 155.72 429.19 155.53 428.41 155.31C426.57 154.81 424.68 154.34 422.77 154.44C421.54 154.5 419.98 155.23 418.79 154.57C417.99 154.12 417.91 153.53 417.83 152.69C417.67 151.06 419.04 149.49 419.84 148.23C421.82 145.13 423.7 142.1 425.42 138.85C431.13 128.06 436.32 116.21 439.56 104.5C440.59 100.8 442 97.19 442.79 93.43C443.03 92.29 442.86 90.2 443.91 89.4C447.62 86.58 449.26 93.29 449.8 95.56C451.59 103.12 454.21 109.98 457.52 117.02C458.18 118.41 460.27 123.59 461.7 123.91C463.06 124.21 463.53 122.32 463.97 121.41C465.3 118.65 466.5 116.06 467.71 113.22C471.67 103.91 474.18 93.47 476.02 83.55C476.6 80.43 475.81 74.32 479.18 72.59C483.26 70.48 482.42 79.33 482.46 81.5C482.65 90.52 485.44 100.17 489.05 108.4C489.64 109.74 491.9 115.64 493.5 115.64C494.61 115.64 495.3 113.88 495.77 113.11C497.52 110.25 498.85 107.74 500.08 104.6C500.59 103.31 501.47 102.15 501.97 100.92C505.82 91.39 511.63 75.25 512.27 65.25C513.13 63.48 514.29 57.79 515.66 56.82C517.77 55.32 520.01 57.47 520.82 59.5C521.21 60.48 521.05 65.53 521.19 67ZM127.87 94.84C128.08 101.48 129.48 107.47 130.58 113.99C131.29 118.19 131.82 122.26 132.87 126.4C133.41 128.52 135.15 136.21 137.5 136.87C139.49 137.44 142.22 133.03 143.26 131.69C146.4 127.63 149.23 123.23 151.93 118.91C153.58 116.28 154.46 113.24 155.99 110.54C156.66 109.34 157.55 108.2 158.12 106.96C158.95 105.2 159.42 102.35 162.2 103.43C164.86 104.46 164.2 109.33 164.74 111.58C166.49 118.94 168.31 127.54 172.5 133.87C176.12 127.63 178.15 120.42 180.22 113.52C180.79 111.63 180.94 107.44 183.51 106.98C187.78 106.2 188.21 116.58 188.98 119.52C190.82 126.5 192.02 134.17 196.38 140.16C197.93 142.3 200.25 144.52 202.36 146.12C203.27 146.81 204.81 147.29 205.16 148.52C206.14 151.98 202.58 151.52 201.58 153.98C200.93 155.56 203.41 157.36 204.22 158.17C204.2 158.63 204.52 159.08 204.43 159.53C203.73 163.06 198.46 163.45 196.42 165.9C193.48 169.43 192.81 173.03 188.44 176.01C184.73 178.54 180.34 179.19 176.2 180.65C171.11 182.44 166.55 184.9 162 187.67C155.19 188 148.33 188.69 141.69 190.34C138.76 191.08 136.01 192.44 133.13 193.29C130.31 191.31 129.3 187.98 127.36 185.15C126.13 183.36 124.68 180.86 122.82 179.66C121.6 178.88 120.2 178.48 119 177.72C120.3 174.63 122.07 173.41 122.72 169.69C124.46 159.77 119.01 153.88 109.47 152.78C104.63 152.22 100.23 153.73 95.48 154.27C89.56 154.95 82.68 155.02 76.96 154.17C77.55 153.09 78.47 152.04 79.02 150.94C79.42 150.15 79.42 149.14 79.7 148.3C81.31 143.55 82.77 138.77 84.46 134.07C85.06 132.4 85.72 127.24 88.31 127.7C88.93 127.81 89.54 129.01 90.03 129.4C90.78 130 91.14 129.46 91.77 130.44C92.69 131.87 92.86 134.71 93.32 136.36C94.25 139.7 95.4 142.97 96.36 146.31C96.64 147.31 97.91 153.12 99.7 151.21C100.56 150.29 100.74 147.73 101.09 146.55C101.89 143.8 102.65 140.94 103.73 138.29C107.53 129.05 110.45 119.57 113.53 110.07C114.67 106.57 116.84 103.45 118.01 100C119.26 96.29 119.37 92.11 120.7 88.44C121.14 87.2 122.19 85.16 123.69 84.9C126.73 84.36 127.4 92.71 127.87 94.84Z" fill="#647a81" fill-rule="evenodd" stroke="#647a81" stroke-width="0.25" stroke-linejoin="round"/>
<path d="M512.27 65.25C511.63 75.25 505.82 91.39 501.97 100.92C501.47 102.15 500.59 103.31 500.08 104.6C498.85 107.74 497.52 110.25 495.77 113.11C495.3 113.88 494.61 115.64 493.5 115.64C491.9 115.64 489.64 109.74 489.05 108.4C485.44 100.17 482.65 90.52 482.46 81.5C482.42 79.33 483.26 70.48 479.18 72.59C475.81 74.32 476.6 80.43 476.02 83.55C474.18 93.47 471.67 103.91 467.71 113.22C466.5 116.06 465.3 118.65 463.97 121.41C463.53 122.32 463.06 124.21 461.7 123.91C460.27 123.59 458.18 118.41 457.52 117.02C454.21 109.98 451.59 103.12 449.8 95.56C449.26 93.29 447.62 86.58 443.91 89.4C442.86 90.2 443.03 92.29 442.79 93.43C442 97.19 440.59 100.8 439.56 104.5C436.32 116.21 431.13 128.06 425.42 138.85C423.7 142.1 421.82 145.13 419.84 148.23C419.04 149.49 417.67 151.06 417.83 152.69C417.91 153.53 417.99 154.12 418.79 154.57C419.98 155.23 421.54 154.5 422.77 154.44C424.68 154.34 426.57 154.81 428.41 155.31C429.19 155.53 430.77 155.72 431.08 156.63C431.79 158.71 428.29 159.74 427.24 160.79C426.54 161.49 426.43 162.21 426.07 163.08C416.73 170.9 404.44 171.34 393.21 174.57C391.95 173.32 391.21 171.79 390.1 170.37C388.19 167.9 385.47 165.27 382.91 163.47C378.75 160.53 373.63 158.41 369.01 156.32C365.37 154.67 361.85 152.6 358.01 151.41C355.46 150.61 352.93 150.39 350.31 150.13C347.33 149.84 344.47 148.75 341.5 148.52C332.06 147.79 316.3 152.11 307.8 156.36C302.37 159.08 297.87 162.96 293.56 167.16C291.35 169.32 289.55 171.97 286.97 173.61C281.53 171.74 275.22 171.9 269.5 170.95C265.4 170.27 261.42 169.1 257.34 168.36C254.1 167.77 250.8 167.5 247.58 166.79C243.95 166 240.56 164.31 236.95 163.54C233.3 162.76 229.65 162.57 226.04 161.48C223.01 160.56 220.2 159.14 217.07 158.49C214.9 158.04 212.7 158.05 210.51 157.81C208.02 157.54 206.39 156.72 204.22 158.17C203.41 157.36 200.93 155.56 201.58 153.98C202.58 151.52 206.14 151.98 205.16 148.52C204.81 147.29 203.27 146.81 202.36 146.12C200.25 144.52 197.93 142.3 196.38 140.16C192.02 134.17 190.82 126.5 188.98 119.52C188.21 116.58 187.78 106.2 183.51 106.98C180.94 107.44 180.79 111.63 180.22 113.52C178.15 120.42 176.12 127.63 172.5 133.87C168.31 127.54 166.49 118.94 164.74 111.58C164.2 109.33 164.86 104.46 162.2 103.43C159.42 102.35 158.95 105.2 158.12 106.96C157.55 108.2 156.66 109.34 155.99 110.54C154.46 113.24 153.58 116.28 151.93 118.91C149.23 123.23 146.4 127.63 143.26 131.69C142.22 133.03 139.49 137.44 137.5 136.87C135.15 136.21 133.41 128.52 132.87 126.4C131.82 122.26 131.29 118.19 130.58 113.99C129.48 107.47 128.08 101.48 127.87 94.84C136.75 89.61 143.09 82.46 153.11 78.55C159.7 75.97 166.76 75.36 173.69 74.34C192.24 71.62 211.67 70.62 230.01 75.44C235.62 76.91 241.39 79.39 246.63 81.87C249.17 83.06 251.46 84.69 254.11 85.57C260.85 90.9 268.87 94.48 275.46 100.11C277.08 101.5 278.28 103.2 279.79 104.69C283.31 108.14 287.32 111.04 290.94 114.37C295.61 118.66 300.1 123.62 305.26 127.33C320.18 138.07 342.28 138.4 358.99 132.42C361.36 131.57 363.88 130.99 366.14 129.85C370.37 127.72 374.07 124.16 377.82 121.29C381.04 118.82 384.53 116.75 387.65 114.12C390.36 111.85 392.69 109.2 395.3 106.83C401.75 100.98 408.82 95.29 416.11 90.53C418.06 89.26 420.16 88.27 422.1 86.99C435.43 80.21 450.3 74.33 464.77 70.41C468.28 69.45 471.89 69.07 475.43 68.22C483.01 66.4 490.61 63.91 498.5 63.82C503.02 63.76 507.8 64.6 512.27 65.25ZM521.19 67C529.8 69.64 538.41 72.27 547.02 74.91C545.25 82.63 541.65 91.07 537.2 97.59C536.37 98.8 534.55 103.22 532.66 102.78C531.36 102.48 529.2 96.15 528.65 94.79C525.49 87.02 521.52 75.27 521.19 67Z" fill="#d9d6c8" fill-rule="evenodd" stroke="#d9d6c8" stroke-width="0.25" stroke-linejoin="round"/>
<path d="M422.1 86.99C420.16 88.27 418.06 89.26 416.11 90.53C408.82 95.29 401.75 100.98 395.3 106.83C392.69 109.2 390.36 111.85 387.65 114.12C384.53 116.75 381.04 118.82 377.82 121.29C374.07 124.16 370.37 127.72 366.14 129.85C363.88 130.99 361.36 131.57 358.99 132.42C342.28 138.4 320.18 138.07 305.26 127.33C300.1 123.62 295.61 118.66 290.94 114.37C287.32 111.04 283.31 108.14 279.79 104.69C278.28 103.2 277.08 101.5 275.46 100.11C268.87 94.48 260.85 90.9 254.11 85.57C255.24 80.82 258.21 77.08 260.25 72.72C262.18 68.6 263.55 64.2 265.62 60.14C267.57 56.31 270.78 52.35 273.59 49.11C275.64 46.75 278.18 45.04 280.51 43.01C281.76 41.92 282.78 40.6 284.07 39.56C285.97 38.01 288.16 36.96 290.29 35.78C292.83 34.36 295.24 32.7 297.79 31.31C301.39 29.35 305.41 28.1 309.22 26.64C313.3 25.08 317.36 23.29 321.52 21.97C328.47 19.75 337.28 19.42 344.5 20.03C353.38 20.79 360.95 23.84 368.96 27.51C372.42 29.08 376.09 30.11 379.34 32.14C383.58 34.79 387.62 37.94 391.67 40.88C395.4 43.58 401.37 47.82 404.27 51.24C408.8 56.57 411.79 63.27 415.11 69.38C418.1 74.9 421.37 80.69 422.1 86.99Z" fill="#eaae5a" fill-rule="evenodd" stroke="#eaae5a" stroke-width="0.25" stroke-linejoin="round"/>
<path d="M35.8 306.9C36.18 307.14 36.35 307.64 36.75 307.82C38.39 308.57 40.75 308.13 42.5 308.19C46.42 308.32 50.38 308.92 54.27 309.41C61.37 310.32 68.44 311.78 75.51 312.87C83.84 314.14 92.13 315.11 100.29 317.35C104.6 318.54 108.92 320.01 113.17 321.42C114.32 321.81 117.09 323.32 118.29 322.83C119.93 322.18 117.87 322.61 119.44 321.57C120.2 322.44 120.95 323.31 121.71 324.19C123.13 324.82 124.54 325.45 125.95 326.07C131.29 330.45 141.46 333.12 147.94 336.57C159.32 342.61 173.13 351.26 179.67 362.76C180.29 363.83 180.39 364.96 180.91 366.03C185.17 374.71 190.2 379.84 189.88 390.19C185.39 391.77 175.59 390.73 170.5 390.53C162.02 390.19 153.49 390.63 145 390.54C128.15 390.35 111.34 390.75 94.5 390.7C80.18 390.65 65.84 390.32 51.5 390.37C40.5 390.41 29.5 390.46 18.5 390.44C15.64 390.43 8.22 391.33 5.95 389.94C3.68 388.54 3.72 385.99 3.75 383.5C3.82 378.09 4.8 372.86 5.64 367.5C8.75 347.63 14.13 330.7 27.99 315.62C29.74 313.73 31.56 311.72 33.07 309.63C33.6 308.9 34 307.68 34.73 307.13C35.02 306.91 35.48 307.07 35.8 306.9Z" fill="#49616f" fill-rule="evenodd" stroke="#49616f" stroke-width="0.25" stroke-linejoin="round"/>
<path d="M560.13 209.13C558.59 212.27 555.09 214.58 552.66 217.17C549.6 220.44 546.69 224.88 544.94 229C543.32 232.84 541.7 237.32 541.33 241.5C540.87 246.79 541.22 250.37 539.55 255.58C538.38 259.27 535.81 262.29 534.6 265.96C532.85 271.22 532.48 277.14 529.66 282.03C527.14 286.39 523.03 289.72 520.66 294.15C518.43 298.31 520.19 303.1 518.98 307.5C517.62 312.45 508.33 321 503.97 323.22C503.54 321.52 504.08 320.98 504.6 319.23C505.81 315.2 506.95 308.3 503.63 304.87C499.19 300.28 489.93 305.81 483.64 300.92C479.92 298.03 480.57 292.68 479.76 288.57C479.32 286.38 477.57 285.36 476.8 283.46C476.01 281.53 477.51 280.41 476.99 278.7C476.53 277.16 474.96 276.52 474.61 274.69C474.11 272.11 477.13 270.17 476.65 267.64C476.13 264.87 472.08 264.88 470.63 262.89C469.54 261.38 469.58 259.34 470.08 257.6C470.66 255.59 472.72 254.04 474 252.48C476.56 249.38 478.85 246.45 480.16 242.6C481.48 238.74 481.07 234.49 482.3 230.6C483.43 227.04 485.97 224.4 487.54 221.08C488.68 218.69 488.88 216 490.25 213.7C491.68 211.29 493.72 209.17 495.68 207.19C503.57 199.2 511.41 197.3 522.5 197.99C524.29 198.1 525.81 198.6 527.54 198.86C531.36 199.43 534.94 199.73 538.72 200.66C546.41 202.55 554.55 202.78 560.13 209.13ZM125.95 326.07C126.52 325.94 126.95 325.38 127.53 325.33C128.73 325.22 129.86 326.04 131 326.27C133.38 326.74 136.08 326.8 138.5 326.97C143.85 327.36 149.23 327.52 154.53 328.47C157.91 329.08 161.15 330.26 164.5 330.93C169.89 332 175.25 333.14 180.63 334.21C185.35 335.15 190.2 334.89 194.97 334.58C196.16 334.5 197.85 334.89 198.95 334.45C200.03 334.02 200.53 332.62 201.09 331.74C202.49 333.1 204.05 333.8 205.76 334.83C208.64 336.55 211.25 338.69 214.22 340.29C217.47 342.04 220.85 343.57 224.01 345.52C235.72 352.73 243.06 361.54 250.57 372.88C253.92 377.94 257.66 383.31 258.67 389.36C255.16 391.95 245.99 390.69 241.5 390.69C229.83 390.69 218.17 390.69 206.5 390.69C202.25 390.69 193.55 391.57 189.88 390.19C190.2 379.84 185.17 374.71 180.91 366.03C180.39 364.96 180.29 363.83 179.67 362.76C173.13 351.26 159.32 342.61 147.94 336.57C141.46 333.12 131.29 330.45 125.95 326.07Z" fill="#c49a71" fill-rule="evenodd" stroke="#c49a71" stroke-width="0.25" stroke-linejoin="round"/>
<path d="M201.98 206.61C197.5 208.7 193.24 211.89 189.17 214.78C187.45 215.99 184.74 217.66 183.75 219.58C182.16 222.68 183.03 227.22 182.37 230.62C181.72 233.97 180.5 237.22 178.86 240.21C178.05 241.7 176.89 243.12 176.31 244.73C175.21 247.79 175.67 251.4 173.6 254.12C171.75 256.55 167.87 256.95 165.61 254.88C162.46 252 163.49 245.87 157.56 247.89C156.9 248.11 156.09 248.73 155.54 249.15C154.81 249.71 154.23 250.36 153.68 251.08C150.25 255.6 151.97 260.96 155.42 264.92C158.9 268.92 165.19 271.3 168.05 275.44C169.94 278.18 170.22 281.81 171.67 284.79C175.28 292.19 179.6 297.49 184.83 303.71C186.75 306 188.31 309.18 190.54 311C193.07 318.58 199.91 323.06 201.09 331.74C200.53 332.62 200.03 334.02 198.95 334.45C197.85 334.89 196.16 334.5 194.97 334.58C190.2 334.89 185.35 335.15 180.63 334.21C175.25 333.14 169.89 332 164.5 330.93C161.15 330.26 157.91 329.08 154.53 328.47C149.23 327.52 143.85 327.36 138.5 326.97C136.08 326.8 133.38 326.74 131 326.27C129.86 326.04 128.73 325.22 127.53 325.33C126.95 325.38 126.52 325.94 125.95 326.07C124.54 325.45 123.13 324.82 121.71 324.19C124.02 323.01 125.54 321.04 127.19 318.98C127.55 318.52 128.92 317.27 128.59 316.57C128.05 315.43 126.69 316.23 125.82 316.41C123.16 316.94 120.52 317.45 118.02 318.53C115.7 315.94 113.77 312.78 111.32 310.16C109.88 308.61 107.71 307.42 106.78 305.49C105.45 302.73 105.63 295.13 105.77 292C107.38 289.43 107.07 284.93 109.64 283.08C113.67 280.18 121.89 283 126.5 282.93C129.46 282.88 132.81 280.41 134.81 278.29C139.73 273.06 136.15 269.62 137.41 264.81C137.71 263.67 138.74 262.68 139.15 261.53C139.72 259.92 139.58 258.2 140.05 256.56C140.54 254.84 141.77 253.4 142.28 251.68C142.86 249.71 142.51 247.65 143.22 245.71C144.55 242.07 148.86 240.17 148.51 235.73C148.12 230.85 140.33 227.15 138.2 222.28C136.03 217.32 138.01 211.7 137.03 206.51C136.18 202.01 133.5 197.91 133.13 193.29C136.01 192.44 138.76 191.08 141.69 190.34C148.33 188.69 155.19 188 162 187.67C166.72 187.53 171.72 187.27 176.5 187.6C178.87 187.77 181.12 188.84 183.5 188.67C189.25 188.26 191.86 182.56 198.51 184.06C201.08 184.64 202.85 187.42 203.91 189.64C207.3 196.75 206.8 200.59 201.98 206.61Z" fill="#a87c59" fill-rule="evenodd" stroke="#a87c59" stroke-width="0.25" stroke-linejoin="round"/>
<path d="M119 177.72C120.2 178.48 121.6 178.88 122.82 179.66C124.68 180.86 126.13 183.36 127.36 185.15C129.3 187.98 130.31 191.31 133.13 193.29C133.5 197.91 136.18 202.01 137.03 206.51C138.01 211.7 136.03 217.32 138.2 222.28C140.33 227.15 148.12 230.85 148.51 235.73C148.86 240.17 144.55 242.07 143.22 245.71C142.51 247.65 142.86 249.71 142.28 251.68C141.77 253.4 140.54 254.84 140.05 256.56C139.58 258.2 139.72 259.92 139.15 261.53C138.74 262.68 137.71 263.67 137.41 264.81C136.15 269.62 139.73 273.06 134.81 278.29C132.81 280.41 129.46 282.88 126.5 282.93C121.89 283 113.67 280.18 109.64 283.08C107.07 284.93 107.38 289.43 105.77 292C102.06 289.9 98.7 283.21 95.84 279.71C93.48 276.81 90.85 273.9 87.93 271.55C86.23 270.17 84.51 269.13 82.97 267.53C80.06 264.47 77.6 259.56 74.47 257.05C71.88 254.96 67.98 255.11 65.04 253.53C59.87 250.75 55.39 244.7 53 239.43C51.28 235.6 51.01 230.36 53.21 226.64C53.77 225.7 55.17 224.96 55.92 224.18C57.72 222.3 58.58 221.37 61.5 221.68C66.07 222.17 68.86 227.51 71.5 230.7C71.56 229.95 72.04 229.26 72.03 228.51C72.03 225.62 70.3 221.6 69.89 218.55C69.59 216.35 69.83 214.11 69.47 211.92C68.99 208.92 67.93 206.02 67.41 203.01C66.81 199.44 65.94 193.75 67.52 190.33C69.56 185.91 75.24 184.57 79.53 183.71C85.46 182.53 91.41 184.5 97.31 183.26C98.74 182.95 100.03 182.18 101.48 181.81C107.3 180.31 113.04 178.21 119 177.72ZM183.27 466C184.6 468.72 184.06 472.38 184.06 475.5C184.06 481.83 184.06 488.17 184.05 494.5C184.05 497.88 184.71 502.06 183.27 505C183.27 492 183.27 479 183.27 466Z" fill="#728389" fill-rule="evenodd" stroke="#728389" stroke-width="0.25" stroke-linejoin="round"/>
<path d="M201.98 206.61C206.7 212.84 208.49 220.99 210.16 228.53C210.71 231 210.6 233.45 211.57 235.85C213.64 240.98 217.75 246.01 221.28 250.24C222.58 251.8 225.7 253.54 226.19 255.55C227.24 259.91 222.54 263.02 221.23 266.68C219.58 271.33 219.87 276.65 219.63 281.5C219.51 284.01 219.91 286.66 218.33 288.82C215.38 292.84 205.87 292.22 201.5 292.18C199.89 292.17 197.36 291.63 195.89 292.47C194.49 293.26 194.11 296.05 193.72 297.44C192.47 301.93 191.85 306.57 190.54 311C188.31 309.18 186.75 306 184.83 303.71C179.6 297.49 175.28 292.19 171.67 284.79C170.22 281.81 169.94 278.18 168.05 275.44C165.19 271.3 158.9 268.92 155.42 264.92C151.97 260.96 150.25 255.6 153.68 251.08C154.23 250.36 154.81 249.71 155.54 249.15C156.09 248.73 156.9 248.11 157.56 247.89C163.49 245.87 162.46 252 165.61 254.88C167.87 256.95 171.75 256.55 173.6 254.12C175.67 251.4 175.21 247.79 176.31 244.73C176.89 243.12 178.05 241.7 178.86 240.21C180.5 237.22 181.72 233.97 182.37 230.62C183.03 227.22 182.16 222.68 183.75 219.58C184.74 217.66 187.45 215.99 189.17 214.78C193.24 211.89 197.5 208.7 201.98 206.61Z" fill="#c5a889" fill-rule="evenodd" stroke="#c5a889" stroke-width="0.25" stroke-linejoin="round"/>
</svg>